<mxfile host="Electron" agent="Mozilla/5.0 (Windows NT 10.0; Win64; x64) AppleWebKit/537.36 (KHTML, like Gecko) draw.io/27.0.9 Chrome/134.0.6998.205 Electron/35.4.0 Safari/537.36" version="27.0.9">
  <diagram name="PÃ¡gina-1" id="o0awrbbvlgzFvTcydx4p">
    <mxGraphModel dx="2180" dy="1528" grid="0" gridSize="10" guides="1" tooltips="1" connect="1" arrows="1" fold="1" page="1" pageScale="1" pageWidth="827" pageHeight="1169" math="0" shadow="0">
      <root>
        <mxCell id="0" />
        <mxCell id="1" parent="0" />
        <mxCell id="SJQ8qqx5Sgb-y-BjWrAD-188" style="edgeStyle=orthogonalEdgeStyle;rounded=0;orthogonalLoop=1;jettySize=auto;html=1;entryX=0.5;entryY=0;entryDx=0;entryDy=0;" parent="1" source="SJQ8qqx5Sgb-y-BjWrAD-180" target="SJQ8qqx5Sgb-y-BjWrAD-183" edge="1">
          <mxGeometry relative="1" as="geometry" />
        </mxCell>
        <mxCell id="SJQ8qqx5Sgb-y-BjWrAD-189" style="edgeStyle=orthogonalEdgeStyle;rounded=0;orthogonalLoop=1;jettySize=auto;html=1;exitX=0.5;exitY=1;exitDx=0;exitDy=0;entryX=0.5;entryY=0;entryDx=0;entryDy=0;" parent="1" source="SJQ8qqx5Sgb-y-BjWrAD-180" target="SJQ8qqx5Sgb-y-BjWrAD-184" edge="1">
          <mxGeometry relative="1" as="geometry" />
        </mxCell>
        <mxCell id="SJQ8qqx5Sgb-y-BjWrAD-190" style="edgeStyle=orthogonalEdgeStyle;rounded=0;orthogonalLoop=1;jettySize=auto;html=1;exitX=1;exitY=0.5;exitDx=0;exitDy=0;" parent="1" source="SJQ8qqx5Sgb-y-BjWrAD-180" target="SJQ8qqx5Sgb-y-BjWrAD-181" edge="1">
          <mxGeometry relative="1" as="geometry" />
        </mxCell>
        <mxCell id="SJQ8qqx5Sgb-y-BjWrAD-193" style="edgeStyle=orthogonalEdgeStyle;rounded=0;orthogonalLoop=1;jettySize=auto;html=1;exitX=1;exitY=0.5;exitDx=0;exitDy=0;entryX=0;entryY=0.5;entryDx=0;entryDy=0;" parent="1" source="SJQ8qqx5Sgb-y-BjWrAD-180" target="SJQ8qqx5Sgb-y-BjWrAD-186" edge="1">
          <mxGeometry relative="1" as="geometry" />
        </mxCell>
        <mxCell id="SJQ8qqx5Sgb-y-BjWrAD-194" style="edgeStyle=orthogonalEdgeStyle;rounded=0;orthogonalLoop=1;jettySize=auto;html=1;exitX=1;exitY=0.5;exitDx=0;exitDy=0;entryX=1;entryY=0.75;entryDx=0;entryDy=0;" parent="1" source="SJQ8qqx5Sgb-y-BjWrAD-180" target="SJQ8qqx5Sgb-y-BjWrAD-185" edge="1">
          <mxGeometry relative="1" as="geometry" />
        </mxCell>
        <mxCell id="SJQ8qqx5Sgb-y-BjWrAD-195" style="edgeStyle=orthogonalEdgeStyle;rounded=0;orthogonalLoop=1;jettySize=auto;html=1;entryX=1;entryY=0.5;entryDx=0;entryDy=0;" parent="1" source="SJQ8qqx5Sgb-y-BjWrAD-180" target="SJQ8qqx5Sgb-y-BjWrAD-182" edge="1">
          <mxGeometry relative="1" as="geometry" />
        </mxCell>
        <mxCell id="Zr5eJQIICAYDmqEga5iW-1" style="edgeStyle=orthogonalEdgeStyle;rounded=0;orthogonalLoop=1;jettySize=auto;html=1;exitX=0.5;exitY=0;exitDx=0;exitDy=0;entryX=0;entryY=0.5;entryDx=0;entryDy=0;" parent="1" source="SJQ8qqx5Sgb-y-BjWrAD-180" target="SJQ8qqx5Sgb-y-BjWrAD-209" edge="1">
          <mxGeometry relative="1" as="geometry" />
        </mxCell>
        <mxCell id="SJQ8qqx5Sgb-y-BjWrAD-180" value="CUPON" style="rounded=1;whiteSpace=wrap;html=1;container=0;fillColor=#f8cecc;strokeColor=#b85450;fontStyle=1" parent="1" vertex="1">
          <mxGeometry x="406" y="959" width="120" height="60" as="geometry" />
        </mxCell>
        <mxCell id="SJQ8qqx5Sgb-y-BjWrAD-181" value="ID_CUPON" style="rounded=1;whiteSpace=wrap;html=1;arcSize=50;fillColor=#dae8fc;strokeColor=#6c8ebf;" parent="1" vertex="1">
          <mxGeometry x="573" y="1066" width="130" height="40" as="geometry" />
        </mxCell>
        <mxCell id="SJQ8qqx5Sgb-y-BjWrAD-182" value="CODIGO QR" style="rounded=1;whiteSpace=wrap;html=1;arcSize=50;fillColor=#dae8fc;strokeColor=#6c8ebf;" parent="1" vertex="1">
          <mxGeometry x="237" y="1118" width="130" height="40" as="geometry" />
        </mxCell>
        <mxCell id="SJQ8qqx5Sgb-y-BjWrAD-183" value="FECHA" style="rounded=1;whiteSpace=wrap;html=1;arcSize=50;fillColor=#dae8fc;strokeColor=#6c8ebf;" parent="1" vertex="1">
          <mxGeometry x="235" y="1073" width="130" height="40" as="geometry" />
        </mxCell>
        <mxCell id="SJQ8qqx5Sgb-y-BjWrAD-184" value="VIGENCIA" style="rounded=1;whiteSpace=wrap;html=1;arcSize=50;fillColor=#dae8fc;strokeColor=#6c8ebf;" parent="1" vertex="1">
          <mxGeometry x="401" y="1066" width="130" height="40" as="geometry" />
        </mxCell>
        <mxCell id="SJQ8qqx5Sgb-y-BjWrAD-185" value="ESTADO" style="rounded=1;whiteSpace=wrap;html=1;arcSize=50;fillColor=#dae8fc;strokeColor=#6c8ebf;" parent="1" vertex="1">
          <mxGeometry x="401" y="1115" width="130" height="40" as="geometry" />
        </mxCell>
        <mxCell id="SJQ8qqx5Sgb-y-BjWrAD-186" value="ESTUDIANTE" style="rounded=1;whiteSpace=wrap;html=1;arcSize=50;fillColor=#dae8fc;strokeColor=#6c8ebf;" parent="1" vertex="1">
          <mxGeometry x="573" y="1118" width="130" height="40" as="geometry" />
        </mxCell>
        <mxCell id="SJQ8qqx5Sgb-y-BjWrAD-88" style="edgeStyle=orthogonalEdgeStyle;rounded=0;orthogonalLoop=1;jettySize=auto;html=1;entryX=1;entryY=0.5;entryDx=0;entryDy=0;" parent="1" source="SJQ8qqx5Sgb-y-BjWrAD-95" target="SJQ8qqx5Sgb-y-BjWrAD-96" edge="1">
          <mxGeometry relative="1" as="geometry" />
        </mxCell>
        <mxCell id="SJQ8qqx5Sgb-y-BjWrAD-89" style="edgeStyle=orthogonalEdgeStyle;rounded=0;orthogonalLoop=1;jettySize=auto;html=1;exitX=0;exitY=0.5;exitDx=0;exitDy=0;entryX=1;entryY=0.5;entryDx=0;entryDy=0;" parent="1" source="SJQ8qqx5Sgb-y-BjWrAD-95" target="SJQ8qqx5Sgb-y-BjWrAD-97" edge="1">
          <mxGeometry relative="1" as="geometry" />
        </mxCell>
        <mxCell id="SJQ8qqx5Sgb-y-BjWrAD-90" style="edgeStyle=orthogonalEdgeStyle;rounded=0;orthogonalLoop=1;jettySize=auto;html=1;exitX=0;exitY=0.5;exitDx=0;exitDy=0;entryX=1;entryY=0.5;entryDx=0;entryDy=0;" parent="1" source="SJQ8qqx5Sgb-y-BjWrAD-95" target="SJQ8qqx5Sgb-y-BjWrAD-98" edge="1">
          <mxGeometry relative="1" as="geometry" />
        </mxCell>
        <mxCell id="SJQ8qqx5Sgb-y-BjWrAD-91" style="edgeStyle=orthogonalEdgeStyle;rounded=0;orthogonalLoop=1;jettySize=auto;html=1;exitX=0;exitY=0.5;exitDx=0;exitDy=0;entryX=1;entryY=0.5;entryDx=0;entryDy=0;" parent="1" source="SJQ8qqx5Sgb-y-BjWrAD-95" target="SJQ8qqx5Sgb-y-BjWrAD-99" edge="1">
          <mxGeometry relative="1" as="geometry" />
        </mxCell>
        <mxCell id="SJQ8qqx5Sgb-y-BjWrAD-92" style="edgeStyle=orthogonalEdgeStyle;rounded=0;orthogonalLoop=1;jettySize=auto;html=1;exitX=0;exitY=0.5;exitDx=0;exitDy=0;entryX=1;entryY=0.5;entryDx=0;entryDy=0;" parent="1" source="SJQ8qqx5Sgb-y-BjWrAD-95" target="SJQ8qqx5Sgb-y-BjWrAD-100" edge="1">
          <mxGeometry relative="1" as="geometry" />
        </mxCell>
        <mxCell id="SJQ8qqx5Sgb-y-BjWrAD-93" style="edgeStyle=orthogonalEdgeStyle;rounded=0;orthogonalLoop=1;jettySize=auto;html=1;exitX=0;exitY=0.5;exitDx=0;exitDy=0;entryX=1;entryY=0.5;entryDx=0;entryDy=0;" parent="1" source="SJQ8qqx5Sgb-y-BjWrAD-95" target="SJQ8qqx5Sgb-y-BjWrAD-101" edge="1">
          <mxGeometry relative="1" as="geometry" />
        </mxCell>
        <mxCell id="SJQ8qqx5Sgb-y-BjWrAD-94" style="edgeStyle=orthogonalEdgeStyle;rounded=0;orthogonalLoop=1;jettySize=auto;html=1;exitX=0;exitY=0.5;exitDx=0;exitDy=0;entryX=1;entryY=0.5;entryDx=0;entryDy=0;" parent="1" source="SJQ8qqx5Sgb-y-BjWrAD-95" target="SJQ8qqx5Sgb-y-BjWrAD-102" edge="1">
          <mxGeometry relative="1" as="geometry" />
        </mxCell>
        <mxCell id="SJQ8qqx5Sgb-y-BjWrAD-104" style="edgeStyle=orthogonalEdgeStyle;rounded=0;orthogonalLoop=1;jettySize=auto;html=1;exitX=0;exitY=0.5;exitDx=0;exitDy=0;entryX=1;entryY=0.5;entryDx=0;entryDy=0;" parent="1" source="SJQ8qqx5Sgb-y-BjWrAD-95" target="SJQ8qqx5Sgb-y-BjWrAD-103" edge="1">
          <mxGeometry relative="1" as="geometry" />
        </mxCell>
        <mxCell id="SJQ8qqx5Sgb-y-BjWrAD-110" style="edgeStyle=orthogonalEdgeStyle;rounded=0;orthogonalLoop=1;jettySize=auto;html=1;exitX=0;exitY=0.5;exitDx=0;exitDy=0;entryX=1;entryY=0.5;entryDx=0;entryDy=0;" parent="1" source="SJQ8qqx5Sgb-y-BjWrAD-95" target="SJQ8qqx5Sgb-y-BjWrAD-105" edge="1">
          <mxGeometry relative="1" as="geometry" />
        </mxCell>
        <mxCell id="SJQ8qqx5Sgb-y-BjWrAD-111" style="edgeStyle=orthogonalEdgeStyle;rounded=0;orthogonalLoop=1;jettySize=auto;html=1;exitX=0;exitY=0.5;exitDx=0;exitDy=0;entryX=1;entryY=0.5;entryDx=0;entryDy=0;" parent="1" source="SJQ8qqx5Sgb-y-BjWrAD-95" target="SJQ8qqx5Sgb-y-BjWrAD-106" edge="1">
          <mxGeometry relative="1" as="geometry" />
        </mxCell>
        <mxCell id="SJQ8qqx5Sgb-y-BjWrAD-112" style="edgeStyle=orthogonalEdgeStyle;rounded=0;orthogonalLoop=1;jettySize=auto;html=1;exitX=0;exitY=0.5;exitDx=0;exitDy=0;entryX=1;entryY=0.5;entryDx=0;entryDy=0;" parent="1" source="SJQ8qqx5Sgb-y-BjWrAD-95" target="SJQ8qqx5Sgb-y-BjWrAD-107" edge="1">
          <mxGeometry relative="1" as="geometry" />
        </mxCell>
        <mxCell id="SJQ8qqx5Sgb-y-BjWrAD-113" style="edgeStyle=orthogonalEdgeStyle;rounded=0;orthogonalLoop=1;jettySize=auto;html=1;exitX=0;exitY=0.5;exitDx=0;exitDy=0;entryX=1;entryY=0.5;entryDx=0;entryDy=0;" parent="1" source="SJQ8qqx5Sgb-y-BjWrAD-95" target="SJQ8qqx5Sgb-y-BjWrAD-108" edge="1">
          <mxGeometry relative="1" as="geometry" />
        </mxCell>
        <mxCell id="SJQ8qqx5Sgb-y-BjWrAD-114" style="edgeStyle=orthogonalEdgeStyle;rounded=0;orthogonalLoop=1;jettySize=auto;html=1;exitX=0;exitY=0.5;exitDx=0;exitDy=0;entryX=1;entryY=0.5;entryDx=0;entryDy=0;" parent="1" source="SJQ8qqx5Sgb-y-BjWrAD-95" target="SJQ8qqx5Sgb-y-BjWrAD-109" edge="1">
          <mxGeometry relative="1" as="geometry" />
        </mxCell>
        <mxCell id="SJQ8qqx5Sgb-y-BjWrAD-205" style="edgeStyle=orthogonalEdgeStyle;rounded=0;orthogonalLoop=1;jettySize=auto;html=1;exitX=0.5;exitY=1;exitDx=0;exitDy=0;entryX=0.5;entryY=0;entryDx=0;entryDy=0;" parent="1" source="SJQ8qqx5Sgb-y-BjWrAD-95" target="SJQ8qqx5Sgb-y-BjWrAD-197" edge="1">
          <mxGeometry relative="1" as="geometry" />
        </mxCell>
        <mxCell id="xNPcaSxH7vleKDsu4y8K-3" style="edgeStyle=orthogonalEdgeStyle;rounded=0;orthogonalLoop=1;jettySize=auto;html=1;exitX=0;exitY=0.5;exitDx=0;exitDy=0;entryX=1;entryY=0.5;entryDx=0;entryDy=0;" parent="1" source="SJQ8qqx5Sgb-y-BjWrAD-95" target="xNPcaSxH7vleKDsu4y8K-2" edge="1">
          <mxGeometry relative="1" as="geometry" />
        </mxCell>
        <mxCell id="Zr5eJQIICAYDmqEga5iW-27" style="edgeStyle=orthogonalEdgeStyle;rounded=0;orthogonalLoop=1;jettySize=auto;html=1;exitX=1;exitY=0.5;exitDx=0;exitDy=0;entryX=0;entryY=0.5;entryDx=0;entryDy=0;" parent="1" source="SJQ8qqx5Sgb-y-BjWrAD-95" target="Zr5eJQIICAYDmqEga5iW-26" edge="1">
          <mxGeometry relative="1" as="geometry" />
        </mxCell>
        <mxCell id="Zr5eJQIICAYDmqEga5iW-42" style="edgeStyle=orthogonalEdgeStyle;rounded=0;orthogonalLoop=1;jettySize=auto;html=1;exitX=1;exitY=0.5;exitDx=0;exitDy=0;entryX=0;entryY=0.5;entryDx=0;entryDy=0;" parent="1" source="SJQ8qqx5Sgb-y-BjWrAD-95" target="Zr5eJQIICAYDmqEga5iW-39" edge="1">
          <mxGeometry relative="1" as="geometry" />
        </mxCell>
        <mxCell id="SJQ8qqx5Sgb-y-BjWrAD-95" value="REPARTIDOR" style="rounded=1;whiteSpace=wrap;html=1;fillColor=#f8cecc;strokeColor=#b85450;fontStyle=1" parent="1" vertex="1">
          <mxGeometry x="241" y="729" width="120" height="60" as="geometry" />
        </mxCell>
        <mxCell id="SJQ8qqx5Sgb-y-BjWrAD-96" value="CEDULA" style="rounded=1;whiteSpace=wrap;html=1;arcSize=50;fillColor=#dae8fc;strokeColor=#6c8ebf;" parent="1" vertex="1">
          <mxGeometry x="34" y="511" width="130" height="40" as="geometry" />
        </mxCell>
        <mxCell id="SJQ8qqx5Sgb-y-BjWrAD-97" value="NOMBRES" style="rounded=1;whiteSpace=wrap;html=1;arcSize=50;fillColor=#dae8fc;strokeColor=#6c8ebf;" parent="1" vertex="1">
          <mxGeometry x="32" y="561" width="130" height="40" as="geometry" />
        </mxCell>
        <mxCell id="SJQ8qqx5Sgb-y-BjWrAD-98" value="APELLIDOS" style="rounded=1;whiteSpace=wrap;html=1;arcSize=50;fillColor=#dae8fc;strokeColor=#6c8ebf;" parent="1" vertex="1">
          <mxGeometry x="34" y="611" width="130" height="40" as="geometry" />
        </mxCell>
        <mxCell id="SJQ8qqx5Sgb-y-BjWrAD-99" value="CORREO INSTITUCIONAL" style="rounded=1;whiteSpace=wrap;html=1;arcSize=50;fillColor=#dae8fc;strokeColor=#6c8ebf;" parent="1" vertex="1">
          <mxGeometry x="33.5" y="712" width="130" height="40" as="geometry" />
        </mxCell>
        <mxCell id="SJQ8qqx5Sgb-y-BjWrAD-100" value="CONTRASEÃA" style="rounded=1;whiteSpace=wrap;html=1;arcSize=50;fillColor=#dae8fc;strokeColor=#6c8ebf;" parent="1" vertex="1">
          <mxGeometry x="32" y="762" width="130" height="40" as="geometry" />
        </mxCell>
        <mxCell id="SJQ8qqx5Sgb-y-BjWrAD-101" value="TELEFONO" style="rounded=1;whiteSpace=wrap;html=1;arcSize=50;fillColor=#dae8fc;strokeColor=#6c8ebf;" parent="1" vertex="1">
          <mxGeometry x="32" y="812" width="130" height="40" as="geometry" />
        </mxCell>
        <mxCell id="SJQ8qqx5Sgb-y-BjWrAD-102" value="ROL" style="rounded=1;whiteSpace=wrap;html=1;arcSize=50;fillColor=#dae8fc;strokeColor=#6c8ebf;" parent="1" vertex="1">
          <mxGeometry x="35" y="862" width="130" height="40" as="geometry" />
        </mxCell>
        <mxCell id="SJQ8qqx5Sgb-y-BjWrAD-103" value="GENERO" style="rounded=1;whiteSpace=wrap;html=1;arcSize=50;fillColor=#dae8fc;strokeColor=#6c8ebf;" parent="1" vertex="1">
          <mxGeometry x="35" y="662" width="130" height="40" as="geometry" />
        </mxCell>
        <mxCell id="SJQ8qqx5Sgb-y-BjWrAD-105" value="FECHA INGRESO" style="rounded=1;whiteSpace=wrap;html=1;arcSize=50;fillColor=#dae8fc;strokeColor=#6c8ebf;" parent="1" vertex="1">
          <mxGeometry x="35" y="912" width="130" height="40" as="geometry" />
        </mxCell>
        <mxCell id="SJQ8qqx5Sgb-y-BjWrAD-106" value="FECHA SALIDA" style="rounded=1;whiteSpace=wrap;html=1;arcSize=50;fillColor=#dae8fc;strokeColor=#6c8ebf;" parent="1" vertex="1">
          <mxGeometry x="32" y="962" width="130" height="40" as="geometry" />
        </mxCell>
        <mxCell id="SJQ8qqx5Sgb-y-BjWrAD-107" value="ESTADO" style="rounded=1;whiteSpace=wrap;html=1;arcSize=50;fillColor=#dae8fc;strokeColor=#6c8ebf;" parent="1" vertex="1">
          <mxGeometry x="33.5" y="1012" width="130" height="40" as="geometry" />
        </mxCell>
        <mxCell id="SJQ8qqx5Sgb-y-BjWrAD-108" value="TURNO" style="rounded=1;whiteSpace=wrap;html=1;arcSize=50;fillColor=#dae8fc;strokeColor=#6c8ebf;" parent="1" vertex="1">
          <mxGeometry x="35" y="1062" width="130" height="40" as="geometry" />
        </mxCell>
        <mxCell id="SJQ8qqx5Sgb-y-BjWrAD-109" value="ID_SEDE" style="rounded=1;whiteSpace=wrap;html=1;arcSize=50;fillColor=#dae8fc;strokeColor=#6c8ebf;" parent="1" vertex="1">
          <mxGeometry x="35" y="1112" width="130" height="40" as="geometry" />
        </mxCell>
        <mxCell id="SJQ8qqx5Sgb-y-BjWrAD-144" style="edgeStyle=orthogonalEdgeStyle;rounded=0;orthogonalLoop=1;jettySize=auto;html=1;entryX=0;entryY=0.5;entryDx=0;entryDy=0;" parent="1" source="SJQ8qqx5Sgb-y-BjWrAD-156" target="SJQ8qqx5Sgb-y-BjWrAD-157" edge="1">
          <mxGeometry relative="1" as="geometry" />
        </mxCell>
        <mxCell id="SJQ8qqx5Sgb-y-BjWrAD-145" style="edgeStyle=orthogonalEdgeStyle;rounded=0;orthogonalLoop=1;jettySize=auto;html=1;exitX=1;exitY=0.5;exitDx=0;exitDy=0;entryX=0;entryY=0.5;entryDx=0;entryDy=0;" parent="1" source="SJQ8qqx5Sgb-y-BjWrAD-156" target="SJQ8qqx5Sgb-y-BjWrAD-158" edge="1">
          <mxGeometry relative="1" as="geometry" />
        </mxCell>
        <mxCell id="SJQ8qqx5Sgb-y-BjWrAD-146" style="edgeStyle=orthogonalEdgeStyle;rounded=0;orthogonalLoop=1;jettySize=auto;html=1;exitX=1;exitY=0.5;exitDx=0;exitDy=0;entryX=0;entryY=0.5;entryDx=0;entryDy=0;" parent="1" source="SJQ8qqx5Sgb-y-BjWrAD-156" target="SJQ8qqx5Sgb-y-BjWrAD-159" edge="1">
          <mxGeometry relative="1" as="geometry" />
        </mxCell>
        <mxCell id="SJQ8qqx5Sgb-y-BjWrAD-147" style="edgeStyle=orthogonalEdgeStyle;rounded=0;orthogonalLoop=1;jettySize=auto;html=1;exitX=1;exitY=0.5;exitDx=0;exitDy=0;entryX=0;entryY=0.5;entryDx=0;entryDy=0;" parent="1" source="SJQ8qqx5Sgb-y-BjWrAD-156" target="SJQ8qqx5Sgb-y-BjWrAD-160" edge="1">
          <mxGeometry relative="1" as="geometry" />
        </mxCell>
        <mxCell id="SJQ8qqx5Sgb-y-BjWrAD-149" style="edgeStyle=orthogonalEdgeStyle;rounded=0;orthogonalLoop=1;jettySize=auto;html=1;exitX=1;exitY=0.5;exitDx=0;exitDy=0;entryX=0;entryY=0.5;entryDx=0;entryDy=0;" parent="1" source="SJQ8qqx5Sgb-y-BjWrAD-156" target="SJQ8qqx5Sgb-y-BjWrAD-162" edge="1">
          <mxGeometry relative="1" as="geometry" />
        </mxCell>
        <mxCell id="SJQ8qqx5Sgb-y-BjWrAD-170" style="edgeStyle=orthogonalEdgeStyle;rounded=0;orthogonalLoop=1;jettySize=auto;html=1;exitX=1;exitY=0.5;exitDx=0;exitDy=0;entryX=0;entryY=0.5;entryDx=0;entryDy=0;" parent="1" source="SJQ8qqx5Sgb-y-BjWrAD-156" target="SJQ8qqx5Sgb-y-BjWrAD-161" edge="1">
          <mxGeometry relative="1" as="geometry" />
        </mxCell>
        <mxCell id="SJQ8qqx5Sgb-y-BjWrAD-156" value="ALIMENTO" style="rounded=1;whiteSpace=wrap;html=1;fillColor=#f8cecc;strokeColor=#b85450;fontStyle=1" parent="1" vertex="1">
          <mxGeometry x="1264" y="814.5" width="120" height="60" as="geometry" />
        </mxCell>
        <mxCell id="SJQ8qqx5Sgb-y-BjWrAD-157" value="ID_ALIMENTO" style="rounded=1;whiteSpace=wrap;html=1;arcSize=50;fillColor=#dae8fc;strokeColor=#6c8ebf;" parent="1" vertex="1">
          <mxGeometry x="1470" y="698.5" width="130" height="40" as="geometry" />
        </mxCell>
        <mxCell id="SJQ8qqx5Sgb-y-BjWrAD-158" value="ID_ESTUDIANTE" style="rounded=1;whiteSpace=wrap;html=1;arcSize=50;fillColor=#dae8fc;strokeColor=#6c8ebf;" parent="1" vertex="1">
          <mxGeometry x="1470" y="748.5" width="130" height="40" as="geometry" />
        </mxCell>
        <mxCell id="SJQ8qqx5Sgb-y-BjWrAD-159" value="DI_REPARTIDOR" style="rounded=1;whiteSpace=wrap;html=1;arcSize=50;fillColor=#dae8fc;strokeColor=#6c8ebf;" parent="1" vertex="1">
          <mxGeometry x="1470" y="798.5" width="130" height="40" as="geometry" />
        </mxCell>
        <mxCell id="SJQ8qqx5Sgb-y-BjWrAD-160" value="ID_CATEGORIA" style="rounded=1;whiteSpace=wrap;html=1;arcSize=50;fillColor=#dae8fc;strokeColor=#6c8ebf;" parent="1" vertex="1">
          <mxGeometry x="1470" y="848.5" width="130" height="40" as="geometry" />
        </mxCell>
        <mxCell id="SJQ8qqx5Sgb-y-BjWrAD-161" value="NOMBRE" style="rounded=1;whiteSpace=wrap;html=1;arcSize=50;fillColor=#dae8fc;strokeColor=#6c8ebf;" parent="1" vertex="1">
          <mxGeometry x="1470" y="898.5" width="130" height="40" as="geometry" />
        </mxCell>
        <mxCell id="SJQ8qqx5Sgb-y-BjWrAD-162" value="CANTIDAD" style="rounded=1;whiteSpace=wrap;html=1;arcSize=50;fillColor=#dae8fc;strokeColor=#6c8ebf;" parent="1" vertex="1">
          <mxGeometry x="1470" y="948.5" width="130" height="40" as="geometry" />
        </mxCell>
        <mxCell id="SJQ8qqx5Sgb-y-BjWrAD-28" style="edgeStyle=orthogonalEdgeStyle;rounded=0;orthogonalLoop=1;jettySize=auto;html=1;entryX=0;entryY=0.5;entryDx=0;entryDy=0;" parent="1" source="SJQ8qqx5Sgb-y-BjWrAD-40" target="SJQ8qqx5Sgb-y-BjWrAD-41" edge="1">
          <mxGeometry relative="1" as="geometry" />
        </mxCell>
        <mxCell id="SJQ8qqx5Sgb-y-BjWrAD-29" style="edgeStyle=orthogonalEdgeStyle;rounded=0;orthogonalLoop=1;jettySize=auto;html=1;exitX=1;exitY=0.5;exitDx=0;exitDy=0;entryX=0;entryY=0.5;entryDx=0;entryDy=0;" parent="1" source="SJQ8qqx5Sgb-y-BjWrAD-40" target="SJQ8qqx5Sgb-y-BjWrAD-42" edge="1">
          <mxGeometry relative="1" as="geometry" />
        </mxCell>
        <mxCell id="SJQ8qqx5Sgb-y-BjWrAD-30" style="edgeStyle=orthogonalEdgeStyle;rounded=0;orthogonalLoop=1;jettySize=auto;html=1;exitX=1;exitY=0.5;exitDx=0;exitDy=0;entryX=0;entryY=0.5;entryDx=0;entryDy=0;" parent="1" source="SJQ8qqx5Sgb-y-BjWrAD-40" target="SJQ8qqx5Sgb-y-BjWrAD-43" edge="1">
          <mxGeometry relative="1" as="geometry" />
        </mxCell>
        <mxCell id="SJQ8qqx5Sgb-y-BjWrAD-31" style="edgeStyle=orthogonalEdgeStyle;rounded=0;orthogonalLoop=1;jettySize=auto;html=1;exitX=1;exitY=0.5;exitDx=0;exitDy=0;entryX=0;entryY=0.5;entryDx=0;entryDy=0;" parent="1" source="SJQ8qqx5Sgb-y-BjWrAD-40" target="SJQ8qqx5Sgb-y-BjWrAD-44" edge="1">
          <mxGeometry relative="1" as="geometry" />
        </mxCell>
        <mxCell id="SJQ8qqx5Sgb-y-BjWrAD-32" style="edgeStyle=orthogonalEdgeStyle;rounded=0;orthogonalLoop=1;jettySize=auto;html=1;exitX=1;exitY=0.5;exitDx=0;exitDy=0;" parent="1" source="SJQ8qqx5Sgb-y-BjWrAD-40" target="SJQ8qqx5Sgb-y-BjWrAD-45" edge="1">
          <mxGeometry relative="1" as="geometry" />
        </mxCell>
        <mxCell id="SJQ8qqx5Sgb-y-BjWrAD-33" style="edgeStyle=orthogonalEdgeStyle;rounded=0;orthogonalLoop=1;jettySize=auto;html=1;exitX=1;exitY=0.5;exitDx=0;exitDy=0;entryX=0;entryY=0.5;entryDx=0;entryDy=0;" parent="1" source="SJQ8qqx5Sgb-y-BjWrAD-40" target="SJQ8qqx5Sgb-y-BjWrAD-46" edge="1">
          <mxGeometry relative="1" as="geometry" />
        </mxCell>
        <mxCell id="SJQ8qqx5Sgb-y-BjWrAD-34" style="edgeStyle=orthogonalEdgeStyle;rounded=0;orthogonalLoop=1;jettySize=auto;html=1;exitX=1;exitY=0.5;exitDx=0;exitDy=0;entryX=0;entryY=0.5;entryDx=0;entryDy=0;" parent="1" source="SJQ8qqx5Sgb-y-BjWrAD-40" target="SJQ8qqx5Sgb-y-BjWrAD-47" edge="1">
          <mxGeometry relative="1" as="geometry" />
        </mxCell>
        <mxCell id="SJQ8qqx5Sgb-y-BjWrAD-36" style="edgeStyle=orthogonalEdgeStyle;rounded=0;orthogonalLoop=1;jettySize=auto;html=1;exitX=1;exitY=0.5;exitDx=0;exitDy=0;entryX=0;entryY=0.5;entryDx=0;entryDy=0;" parent="1" source="SJQ8qqx5Sgb-y-BjWrAD-40" target="SJQ8qqx5Sgb-y-BjWrAD-49" edge="1">
          <mxGeometry relative="1" as="geometry" />
        </mxCell>
        <mxCell id="SJQ8qqx5Sgb-y-BjWrAD-37" style="edgeStyle=orthogonalEdgeStyle;rounded=0;orthogonalLoop=1;jettySize=auto;html=1;exitX=1;exitY=0.5;exitDx=0;exitDy=0;entryX=0;entryY=0.5;entryDx=0;entryDy=0;" parent="1" source="SJQ8qqx5Sgb-y-BjWrAD-40" target="SJQ8qqx5Sgb-y-BjWrAD-50" edge="1">
          <mxGeometry relative="1" as="geometry" />
        </mxCell>
        <mxCell id="SJQ8qqx5Sgb-y-BjWrAD-38" style="edgeStyle=orthogonalEdgeStyle;rounded=0;orthogonalLoop=1;jettySize=auto;html=1;exitX=1;exitY=0.5;exitDx=0;exitDy=0;entryX=0;entryY=0.5;entryDx=0;entryDy=0;" parent="1" source="SJQ8qqx5Sgb-y-BjWrAD-40" target="SJQ8qqx5Sgb-y-BjWrAD-51" edge="1">
          <mxGeometry relative="1" as="geometry" />
        </mxCell>
        <mxCell id="SJQ8qqx5Sgb-y-BjWrAD-39" style="edgeStyle=orthogonalEdgeStyle;rounded=0;orthogonalLoop=1;jettySize=auto;html=1;exitX=1;exitY=0.5;exitDx=0;exitDy=0;entryX=0;entryY=0.5;entryDx=0;entryDy=0;" parent="1" source="SJQ8qqx5Sgb-y-BjWrAD-40" target="SJQ8qqx5Sgb-y-BjWrAD-52" edge="1">
          <mxGeometry relative="1" as="geometry" />
        </mxCell>
        <mxCell id="SJQ8qqx5Sgb-y-BjWrAD-203" style="edgeStyle=orthogonalEdgeStyle;rounded=0;orthogonalLoop=1;jettySize=auto;html=1;exitX=0.5;exitY=1;exitDx=0;exitDy=0;entryX=0.5;entryY=0;entryDx=0;entryDy=0;" parent="1" source="SJQ8qqx5Sgb-y-BjWrAD-40" target="SJQ8qqx5Sgb-y-BjWrAD-198" edge="1">
          <mxGeometry relative="1" as="geometry" />
        </mxCell>
        <mxCell id="SJQ8qqx5Sgb-y-BjWrAD-207" style="edgeStyle=orthogonalEdgeStyle;rounded=0;orthogonalLoop=1;jettySize=auto;html=1;exitX=0.5;exitY=1;exitDx=0;exitDy=0;" parent="1" source="SJQ8qqx5Sgb-y-BjWrAD-40" target="SJQ8qqx5Sgb-y-BjWrAD-202" edge="1">
          <mxGeometry relative="1" as="geometry" />
        </mxCell>
        <mxCell id="xNPcaSxH7vleKDsu4y8K-1" style="edgeStyle=orthogonalEdgeStyle;rounded=0;orthogonalLoop=1;jettySize=auto;html=1;exitX=1;exitY=0.5;exitDx=0;exitDy=0;entryX=0;entryY=0.5;entryDx=0;entryDy=0;" parent="1" source="SJQ8qqx5Sgb-y-BjWrAD-40" target="SJQ8qqx5Sgb-y-BjWrAD-48" edge="1">
          <mxGeometry relative="1" as="geometry" />
        </mxCell>
        <mxCell id="SJQ8qqx5Sgb-y-BjWrAD-40" value="ESTUDIANTE" style="rounded=1;whiteSpace=wrap;html=1;fillColor=#f8cecc;strokeColor=#b85450;fontStyle=1" parent="1" vertex="1">
          <mxGeometry x="1264" y="327.5" width="120" height="60" as="geometry" />
        </mxCell>
        <mxCell id="SJQ8qqx5Sgb-y-BjWrAD-41" value="CEDULA" style="rounded=1;whiteSpace=wrap;html=1;arcSize=50;fillColor=#dae8fc;strokeColor=#6c8ebf;" parent="1" vertex="1">
          <mxGeometry x="1462" y="137.5" width="130" height="40" as="geometry" />
        </mxCell>
        <mxCell id="SJQ8qqx5Sgb-y-BjWrAD-42" value="NOMBRES" style="rounded=1;whiteSpace=wrap;html=1;arcSize=50;fillColor=#dae8fc;strokeColor=#6c8ebf;" parent="1" vertex="1">
          <mxGeometry x="1462" y="187.5" width="130" height="40" as="geometry" />
        </mxCell>
        <mxCell id="SJQ8qqx5Sgb-y-BjWrAD-43" value="APELLIDOS" style="rounded=1;whiteSpace=wrap;html=1;arcSize=50;fillColor=#dae8fc;strokeColor=#6c8ebf;" parent="1" vertex="1">
          <mxGeometry x="1462" y="237.5" width="130" height="40" as="geometry" />
        </mxCell>
        <mxCell id="SJQ8qqx5Sgb-y-BjWrAD-44" value="GENERO" style="rounded=1;whiteSpace=wrap;html=1;arcSize=50;fillColor=#dae8fc;strokeColor=#6c8ebf;" parent="1" vertex="1">
          <mxGeometry x="1462" y="287.5" width="130" height="40" as="geometry" />
        </mxCell>
        <mxCell id="SJQ8qqx5Sgb-y-BjWrAD-45" value="CORREO INSTITUCIONAL" style="rounded=1;whiteSpace=wrap;html=1;arcSize=50;fillColor=#dae8fc;strokeColor=#6c8ebf;" parent="1" vertex="1">
          <mxGeometry x="1462" y="337.5" width="130" height="40" as="geometry" />
        </mxCell>
        <mxCell id="SJQ8qqx5Sgb-y-BjWrAD-46" value="CONTRASEÃA" style="rounded=1;whiteSpace=wrap;html=1;arcSize=50;fillColor=#dae8fc;strokeColor=#6c8ebf;" parent="1" vertex="1">
          <mxGeometry x="1462" y="387.5" width="130" height="40" as="geometry" />
        </mxCell>
        <mxCell id="SJQ8qqx5Sgb-y-BjWrAD-47" value="PROGRAMA" style="rounded=1;whiteSpace=wrap;html=1;arcSize=50;fillColor=#dae8fc;strokeColor=#6c8ebf;" parent="1" vertex="1">
          <mxGeometry x="1462" y="437.5" width="130" height="40" as="geometry" />
        </mxCell>
        <mxCell id="SJQ8qqx5Sgb-y-BjWrAD-48" value="ID_ESTUDIANTRE" style="rounded=1;whiteSpace=wrap;html=1;arcSize=50;fillColor=#dae8fc;strokeColor=#6c8ebf;" parent="1" vertex="1">
          <mxGeometry x="1462" y="87.5" width="130" height="40" as="geometry" />
        </mxCell>
        <mxCell id="SJQ8qqx5Sgb-y-BjWrAD-49" value="CUATRIMESTRE" style="rounded=1;whiteSpace=wrap;html=1;arcSize=50;fillColor=#dae8fc;strokeColor=#6c8ebf;" parent="1" vertex="1">
          <mxGeometry x="1462" y="487.5" width="130" height="40" as="geometry" />
        </mxCell>
        <mxCell id="SJQ8qqx5Sgb-y-BjWrAD-50" value="ESTADO" style="rounded=1;whiteSpace=wrap;html=1;arcSize=50;fillColor=#dae8fc;strokeColor=#6c8ebf;" parent="1" vertex="1">
          <mxGeometry x="1462" y="537.5" width="130" height="40" as="geometry" />
        </mxCell>
        <mxCell id="SJQ8qqx5Sgb-y-BjWrAD-51" value="FECHA REGISTRO" style="rounded=1;whiteSpace=wrap;html=1;arcSize=50;fillColor=#dae8fc;strokeColor=#6c8ebf;" parent="1" vertex="1">
          <mxGeometry x="1462" y="587.5" width="130" height="40" as="geometry" />
        </mxCell>
        <mxCell id="SJQ8qqx5Sgb-y-BjWrAD-52" value="ROL" style="rounded=1;whiteSpace=wrap;html=1;arcSize=50;fillColor=#dae8fc;strokeColor=#6c8ebf;" parent="1" vertex="1">
          <mxGeometry x="1462" y="637.5" width="130" height="40" as="geometry" />
        </mxCell>
        <mxCell id="SJQ8qqx5Sgb-y-BjWrAD-53" style="edgeStyle=orthogonalEdgeStyle;rounded=0;orthogonalLoop=1;jettySize=auto;html=1;entryX=1;entryY=0.5;entryDx=0;entryDy=0;" parent="1" source="SJQ8qqx5Sgb-y-BjWrAD-1" target="SJQ8qqx5Sgb-y-BjWrAD-2" edge="1">
          <mxGeometry relative="1" as="geometry" />
        </mxCell>
        <mxCell id="SJQ8qqx5Sgb-y-BjWrAD-54" style="edgeStyle=orthogonalEdgeStyle;rounded=0;orthogonalLoop=1;jettySize=auto;html=1;exitX=0;exitY=0.5;exitDx=0;exitDy=0;entryX=1;entryY=0.5;entryDx=0;entryDy=0;" parent="1" source="SJQ8qqx5Sgb-y-BjWrAD-1" target="SJQ8qqx5Sgb-y-BjWrAD-3" edge="1">
          <mxGeometry relative="1" as="geometry" />
        </mxCell>
        <mxCell id="SJQ8qqx5Sgb-y-BjWrAD-55" style="edgeStyle=orthogonalEdgeStyle;rounded=0;orthogonalLoop=1;jettySize=auto;html=1;exitX=0;exitY=0.5;exitDx=0;exitDy=0;entryX=1;entryY=0.5;entryDx=0;entryDy=0;" parent="1" source="SJQ8qqx5Sgb-y-BjWrAD-1" target="SJQ8qqx5Sgb-y-BjWrAD-4" edge="1">
          <mxGeometry relative="1" as="geometry" />
        </mxCell>
        <mxCell id="SJQ8qqx5Sgb-y-BjWrAD-56" style="edgeStyle=orthogonalEdgeStyle;rounded=0;orthogonalLoop=1;jettySize=auto;html=1;exitX=0;exitY=0.5;exitDx=0;exitDy=0;entryX=1;entryY=0.5;entryDx=0;entryDy=0;" parent="1" source="SJQ8qqx5Sgb-y-BjWrAD-1" target="SJQ8qqx5Sgb-y-BjWrAD-6" edge="1">
          <mxGeometry relative="1" as="geometry" />
        </mxCell>
        <mxCell id="SJQ8qqx5Sgb-y-BjWrAD-57" style="edgeStyle=orthogonalEdgeStyle;rounded=0;orthogonalLoop=1;jettySize=auto;html=1;exitX=0;exitY=0.5;exitDx=0;exitDy=0;entryX=1;entryY=0.5;entryDx=0;entryDy=0;" parent="1" source="SJQ8qqx5Sgb-y-BjWrAD-1" target="SJQ8qqx5Sgb-y-BjWrAD-7" edge="1">
          <mxGeometry relative="1" as="geometry" />
        </mxCell>
        <mxCell id="SJQ8qqx5Sgb-y-BjWrAD-58" style="edgeStyle=orthogonalEdgeStyle;rounded=0;orthogonalLoop=1;jettySize=auto;html=1;exitX=0;exitY=0.5;exitDx=0;exitDy=0;entryX=1;entryY=0.5;entryDx=0;entryDy=0;" parent="1" source="SJQ8qqx5Sgb-y-BjWrAD-1" target="SJQ8qqx5Sgb-y-BjWrAD-8" edge="1">
          <mxGeometry relative="1" as="geometry" />
        </mxCell>
        <mxCell id="SJQ8qqx5Sgb-y-BjWrAD-59" style="edgeStyle=orthogonalEdgeStyle;rounded=0;orthogonalLoop=1;jettySize=auto;html=1;exitX=0;exitY=0.5;exitDx=0;exitDy=0;entryX=1;entryY=0.5;entryDx=0;entryDy=0;" parent="1" source="SJQ8qqx5Sgb-y-BjWrAD-1" target="SJQ8qqx5Sgb-y-BjWrAD-13" edge="1">
          <mxGeometry relative="1" as="geometry" />
        </mxCell>
        <mxCell id="SJQ8qqx5Sgb-y-BjWrAD-199" style="edgeStyle=orthogonalEdgeStyle;rounded=0;orthogonalLoop=1;jettySize=auto;html=1;exitX=0.5;exitY=1;exitDx=0;exitDy=0;entryX=0.5;entryY=0;entryDx=0;entryDy=0;" parent="1" source="SJQ8qqx5Sgb-y-BjWrAD-1" target="SJQ8qqx5Sgb-y-BjWrAD-196" edge="1">
          <mxGeometry relative="1" as="geometry" />
        </mxCell>
        <mxCell id="xNPcaSxH7vleKDsu4y8K-5" style="edgeStyle=orthogonalEdgeStyle;rounded=0;orthogonalLoop=1;jettySize=auto;html=1;exitX=0;exitY=0.5;exitDx=0;exitDy=0;entryX=1;entryY=0.5;entryDx=0;entryDy=0;" parent="1" source="SJQ8qqx5Sgb-y-BjWrAD-1" target="xNPcaSxH7vleKDsu4y8K-4" edge="1">
          <mxGeometry relative="1" as="geometry" />
        </mxCell>
        <mxCell id="SJQ8qqx5Sgb-y-BjWrAD-1" value="ADMINISTRADOR" style="rounded=1;whiteSpace=wrap;html=1;fillColor=#f8cecc;strokeColor=#b85450;fontStyle=1" parent="1" vertex="1">
          <mxGeometry x="241" y="211" width="120" height="60" as="geometry" />
        </mxCell>
        <mxCell id="SJQ8qqx5Sgb-y-BjWrAD-2" value="CEDULA" style="rounded=1;whiteSpace=wrap;html=1;arcSize=50;fillColor=#dae8fc;strokeColor=#6c8ebf;" parent="1" vertex="1">
          <mxGeometry x="43" y="94.5" width="130" height="40" as="geometry" />
        </mxCell>
        <mxCell id="SJQ8qqx5Sgb-y-BjWrAD-3" value="NOMBRES" style="rounded=1;whiteSpace=wrap;html=1;arcSize=50;fillColor=#dae8fc;strokeColor=#6c8ebf;" parent="1" vertex="1">
          <mxGeometry x="41" y="144.5" width="130" height="40" as="geometry" />
        </mxCell>
        <mxCell id="SJQ8qqx5Sgb-y-BjWrAD-4" value="APELLIDOS" style="rounded=1;whiteSpace=wrap;html=1;arcSize=50;fillColor=#dae8fc;strokeColor=#6c8ebf;" parent="1" vertex="1">
          <mxGeometry x="43" y="194.5" width="130" height="40" as="geometry" />
        </mxCell>
        <mxCell id="SJQ8qqx5Sgb-y-BjWrAD-6" value="CORREO INSTITUCIONAL" style="rounded=1;whiteSpace=wrap;html=1;arcSize=50;fillColor=#dae8fc;strokeColor=#6c8ebf;" parent="1" vertex="1">
          <mxGeometry x="43" y="244.5" width="130" height="40" as="geometry" />
        </mxCell>
        <mxCell id="SJQ8qqx5Sgb-y-BjWrAD-7" value="CONTRASEÃA" style="rounded=1;whiteSpace=wrap;html=1;arcSize=50;fillColor=#dae8fc;strokeColor=#6c8ebf;" parent="1" vertex="1">
          <mxGeometry x="43" y="294.5" width="130" height="40" as="geometry" />
        </mxCell>
        <mxCell id="SJQ8qqx5Sgb-y-BjWrAD-8" value="TELEFONO" style="rounded=1;whiteSpace=wrap;html=1;arcSize=50;fillColor=#dae8fc;strokeColor=#6c8ebf;" parent="1" vertex="1">
          <mxGeometry x="43" y="344.5" width="130" height="40" as="geometry" />
        </mxCell>
        <mxCell id="SJQ8qqx5Sgb-y-BjWrAD-13" value="ROL" style="rounded=1;whiteSpace=wrap;html=1;arcSize=50;fillColor=#dae8fc;strokeColor=#6c8ebf;" parent="1" vertex="1">
          <mxGeometry x="41" y="394.5" width="130" height="40" as="geometry" />
        </mxCell>
        <mxCell id="SJQ8qqx5Sgb-y-BjWrAD-200" style="edgeStyle=orthogonalEdgeStyle;rounded=0;orthogonalLoop=1;jettySize=auto;html=1;exitX=0.5;exitY=1;exitDx=0;exitDy=0;entryX=0.5;entryY=0;entryDx=0;entryDy=0;" parent="1" source="SJQ8qqx5Sgb-y-BjWrAD-196" target="SJQ8qqx5Sgb-y-BjWrAD-95" edge="1">
          <mxGeometry relative="1" as="geometry" />
        </mxCell>
        <mxCell id="SJQ8qqx5Sgb-y-BjWrAD-201" style="edgeStyle=orthogonalEdgeStyle;rounded=0;orthogonalLoop=1;jettySize=auto;html=1;exitX=1;exitY=0.5;exitDx=0;exitDy=0;entryX=0;entryY=0.5;entryDx=0;entryDy=0;" parent="1" source="SJQ8qqx5Sgb-y-BjWrAD-196" target="SJQ8qqx5Sgb-y-BjWrAD-40" edge="1">
          <mxGeometry relative="1" as="geometry" />
        </mxCell>
        <mxCell id="SJQ8qqx5Sgb-y-BjWrAD-214" style="edgeStyle=orthogonalEdgeStyle;rounded=0;orthogonalLoop=1;jettySize=auto;html=1;exitX=1;exitY=1;exitDx=0;exitDy=0;entryX=0;entryY=0.5;entryDx=0;entryDy=0;" parent="1" source="SJQ8qqx5Sgb-y-BjWrAD-196" target="SJQ8qqx5Sgb-y-BjWrAD-156" edge="1">
          <mxGeometry relative="1" as="geometry">
            <Array as="points">
              <mxPoint x="329" y="380" />
              <mxPoint x="457" y="380" />
              <mxPoint x="457" y="732" />
              <mxPoint x="518" y="732" />
              <mxPoint x="518" y="845" />
            </Array>
          </mxGeometry>
        </mxCell>
        <mxCell id="SJQ8qqx5Sgb-y-BjWrAD-196" value="REGISTRA" style="rhombus;whiteSpace=wrap;html=1;fillColor=#e1d5e7;strokeColor=#9673a6;fontStyle=2" parent="1" vertex="1">
          <mxGeometry x="248.81" y="291" width="106.38" height="74" as="geometry" />
        </mxCell>
        <mxCell id="SJQ8qqx5Sgb-y-BjWrAD-206" style="edgeStyle=orthogonalEdgeStyle;rounded=0;orthogonalLoop=1;jettySize=auto;html=1;exitX=1;exitY=0.5;exitDx=0;exitDy=0;entryX=0;entryY=0.5;entryDx=0;entryDy=0;" parent="1" source="SJQ8qqx5Sgb-y-BjWrAD-197" target="SJQ8qqx5Sgb-y-BjWrAD-156" edge="1">
          <mxGeometry relative="1" as="geometry" />
        </mxCell>
        <mxCell id="SJQ8qqx5Sgb-y-BjWrAD-197" value="ENTREGA" style="rhombus;whiteSpace=wrap;html=1;fillColor=#e1d5e7;strokeColor=#9673a6;fontStyle=2" parent="1" vertex="1">
          <mxGeometry x="248.81" y="845" width="106.38" height="74" as="geometry" />
        </mxCell>
        <mxCell id="Zr5eJQIICAYDmqEga5iW-41" style="edgeStyle=orthogonalEdgeStyle;rounded=0;orthogonalLoop=1;jettySize=auto;html=1;" parent="1" source="SJQ8qqx5Sgb-y-BjWrAD-198" target="SJQ8qqx5Sgb-y-BjWrAD-180" edge="1">
          <mxGeometry relative="1" as="geometry">
            <Array as="points">
              <mxPoint x="834" y="672" />
              <mxPoint x="466" y="672" />
            </Array>
          </mxGeometry>
        </mxCell>
        <mxCell id="SJQ8qqx5Sgb-y-BjWrAD-198" value="GENERA" style="rhombus;whiteSpace=wrap;html=1;container=1;fillColor=#e1d5e7;strokeColor=#9673a6;fontStyle=2" parent="1" vertex="1">
          <mxGeometry x="781" y="477.5" width="106.38" height="74" as="geometry" />
        </mxCell>
        <mxCell id="SJQ8qqx5Sgb-y-BjWrAD-220" value="1:N" style="text;html=1;align=center;verticalAlign=middle;whiteSpace=wrap;rounded=0;" parent="SJQ8qqx5Sgb-y-BjWrAD-198" vertex="1">
          <mxGeometry x="64" y="-10.5" width="31" height="30" as="geometry" />
        </mxCell>
        <mxCell id="SJQ8qqx5Sgb-y-BjWrAD-208" style="edgeStyle=orthogonalEdgeStyle;rounded=0;orthogonalLoop=1;jettySize=auto;html=1;exitX=0.5;exitY=1;exitDx=0;exitDy=0;entryX=0.5;entryY=0;entryDx=0;entryDy=0;" parent="1" source="SJQ8qqx5Sgb-y-BjWrAD-202" target="SJQ8qqx5Sgb-y-BjWrAD-156" edge="1">
          <mxGeometry relative="1" as="geometry" />
        </mxCell>
        <mxCell id="SJQ8qqx5Sgb-y-BjWrAD-202" value="RECIBE" style="rhombus;whiteSpace=wrap;html=1;container=1;fillColor=#e1d5e7;strokeColor=#9673a6;fontStyle=2" parent="1" vertex="1">
          <mxGeometry x="1270.81" y="563.5" width="106.38" height="74" as="geometry" />
        </mxCell>
        <mxCell id="SJQ8qqx5Sgb-y-BjWrAD-218" value="1:N" style="text;html=1;align=center;verticalAlign=middle;whiteSpace=wrap;rounded=0;" parent="SJQ8qqx5Sgb-y-BjWrAD-202" vertex="1">
          <mxGeometry x="73.19" y="-5" width="23" height="30" as="geometry" />
        </mxCell>
        <mxCell id="SJQ8qqx5Sgb-y-BjWrAD-211" style="edgeStyle=orthogonalEdgeStyle;rounded=0;orthogonalLoop=1;jettySize=auto;html=1;exitX=0.5;exitY=0;exitDx=0;exitDy=0;entryX=0.5;entryY=1;entryDx=0;entryDy=0;" parent="1" source="SJQ8qqx5Sgb-y-BjWrAD-209" target="SJQ8qqx5Sgb-y-BjWrAD-156" edge="1">
          <mxGeometry relative="1" as="geometry" />
        </mxCell>
        <mxCell id="SJQ8qqx5Sgb-y-BjWrAD-209" value="REDIME" style="rhombus;whiteSpace=wrap;html=1;fillColor=#e1d5e7;strokeColor=#9673a6;fontStyle=2" parent="1" vertex="1">
          <mxGeometry x="1270.81" y="934.5" width="106.38" height="74" as="geometry" />
        </mxCell>
        <mxCell id="SJQ8qqx5Sgb-y-BjWrAD-215" value="1:N" style="text;html=1;align=center;verticalAlign=middle;whiteSpace=wrap;rounded=0;" parent="1" vertex="1">
          <mxGeometry x="334" y="341" width="31" height="30" as="geometry" />
        </mxCell>
        <mxCell id="SJQ8qqx5Sgb-y-BjWrAD-216" value="1:N" style="text;html=1;align=center;verticalAlign=middle;whiteSpace=wrap;rounded=0;" parent="1" vertex="1">
          <mxGeometry x="251" y="339" width="28" height="30" as="geometry" />
        </mxCell>
        <mxCell id="SJQ8qqx5Sgb-y-BjWrAD-217" value="1:N" style="text;html=1;align=center;verticalAlign=middle;whiteSpace=wrap;rounded=0;" parent="1" vertex="1">
          <mxGeometry x="361" y="298" width="30" height="30" as="geometry" />
        </mxCell>
        <mxCell id="SJQ8qqx5Sgb-y-BjWrAD-221" value="1:N" style="text;html=1;align=center;verticalAlign=middle;whiteSpace=wrap;rounded=0;" parent="1" vertex="1">
          <mxGeometry x="310" y="829.5" width="31" height="30" as="geometry" />
        </mxCell>
        <mxCell id="SJQ8qqx5Sgb-y-BjWrAD-222" value="1:1" style="text;html=1;align=center;verticalAlign=middle;whiteSpace=wrap;rounded=0;" parent="1" vertex="1">
          <mxGeometry x="1262" y="931.5" width="31" height="30" as="geometry" />
        </mxCell>
        <mxCell id="74XwRA6syDnpyXbHzsk_-2" value="MER SISGECU" style="text;html=1;align=center;verticalAlign=middle;whiteSpace=wrap;rounded=0;fontSize=48;fontStyle=1;fontFamily=Tahoma;fontColor=#FF9999;" parent="1" vertex="1">
          <mxGeometry x="838" y="74" width="200" height="30" as="geometry" />
        </mxCell>
        <mxCell id="xNPcaSxH7vleKDsu4y8K-2" value="ID_REPARTIDOR" style="rounded=1;whiteSpace=wrap;html=1;arcSize=50;fillColor=#dae8fc;strokeColor=#6c8ebf;" parent="1" vertex="1">
          <mxGeometry x="34" y="462" width="130" height="40" as="geometry" />
        </mxCell>
        <mxCell id="xNPcaSxH7vleKDsu4y8K-4" value="ID_ADMIN" style="rounded=1;whiteSpace=wrap;html=1;arcSize=50;fillColor=#dae8fc;strokeColor=#6c8ebf;" parent="1" vertex="1">
          <mxGeometry x="43" y="47.5" width="130" height="40" as="geometry" />
        </mxCell>
        <mxCell id="Zr5eJQIICAYDmqEga5iW-8" style="edgeStyle=orthogonalEdgeStyle;rounded=0;orthogonalLoop=1;jettySize=auto;html=1;exitX=1;exitY=0.5;exitDx=0;exitDy=0;entryX=0;entryY=0.5;entryDx=0;entryDy=0;" parent="1" source="Zr5eJQIICAYDmqEga5iW-3" target="Zr5eJQIICAYDmqEga5iW-6" edge="1">
          <mxGeometry relative="1" as="geometry" />
        </mxCell>
        <mxCell id="Zr5eJQIICAYDmqEga5iW-9" style="edgeStyle=orthogonalEdgeStyle;rounded=0;orthogonalLoop=1;jettySize=auto;html=1;exitX=1;exitY=0.5;exitDx=0;exitDy=0;" parent="1" source="Zr5eJQIICAYDmqEga5iW-3" target="Zr5eJQIICAYDmqEga5iW-4" edge="1">
          <mxGeometry relative="1" as="geometry" />
        </mxCell>
        <mxCell id="Zr5eJQIICAYDmqEga5iW-10" style="edgeStyle=orthogonalEdgeStyle;rounded=0;orthogonalLoop=1;jettySize=auto;html=1;exitX=1;exitY=0.5;exitDx=0;exitDy=0;entryX=0;entryY=0.5;entryDx=0;entryDy=0;" parent="1" source="Zr5eJQIICAYDmqEga5iW-3" target="Zr5eJQIICAYDmqEga5iW-5" edge="1">
          <mxGeometry relative="1" as="geometry" />
        </mxCell>
        <mxCell id="Zr5eJQIICAYDmqEga5iW-13" style="edgeStyle=orthogonalEdgeStyle;rounded=0;orthogonalLoop=1;jettySize=auto;html=1;exitX=0.5;exitY=1;exitDx=0;exitDy=0;entryX=0.5;entryY=0;entryDx=0;entryDy=0;" parent="1" source="Zr5eJQIICAYDmqEga5iW-3" target="Zr5eJQIICAYDmqEga5iW-11" edge="1">
          <mxGeometry relative="1" as="geometry" />
        </mxCell>
        <mxCell id="Zr5eJQIICAYDmqEga5iW-3" value="CATEGORÃA" style="rounded=1;whiteSpace=wrap;html=1;fillColor=#f8cecc;strokeColor=#b85450;fontStyle=1" parent="1" vertex="1">
          <mxGeometry x="898" y="239" width="120" height="60" as="geometry" />
        </mxCell>
        <mxCell id="Zr5eJQIICAYDmqEga5iW-4" value="NOMBRE" style="rounded=1;whiteSpace=wrap;html=1;arcSize=50;fillColor=#dae8fc;strokeColor=#6c8ebf;" parent="1" vertex="1">
          <mxGeometry x="1072" y="249" width="130" height="40" as="geometry" />
        </mxCell>
        <mxCell id="Zr5eJQIICAYDmqEga5iW-5" value="DESCRIPCION" style="rounded=1;whiteSpace=wrap;html=1;arcSize=50;fillColor=#dae8fc;strokeColor=#6c8ebf;" parent="1" vertex="1">
          <mxGeometry x="1072" y="299" width="130" height="40" as="geometry" />
        </mxCell>
        <mxCell id="Zr5eJQIICAYDmqEga5iW-6" value="ID_CATEGORIA" style="rounded=1;whiteSpace=wrap;html=1;arcSize=50;fillColor=#dae8fc;strokeColor=#6c8ebf;" parent="1" vertex="1">
          <mxGeometry x="1072" y="199" width="130" height="40" as="geometry" />
        </mxCell>
        <mxCell id="Zr5eJQIICAYDmqEga5iW-31" style="edgeStyle=orthogonalEdgeStyle;rounded=0;orthogonalLoop=1;jettySize=auto;html=1;exitX=1;exitY=0.5;exitDx=0;exitDy=0;entryX=0;entryY=0.5;entryDx=0;entryDy=0;" parent="1" source="Zr5eJQIICAYDmqEga5iW-11" target="SJQ8qqx5Sgb-y-BjWrAD-156" edge="1">
          <mxGeometry relative="1" as="geometry" />
        </mxCell>
        <mxCell id="Zr5eJQIICAYDmqEga5iW-11" value="AGRUPA" style="rhombus;whiteSpace=wrap;html=1;container=1;fillColor=#e1d5e7;strokeColor=#9673a6;fontStyle=2" parent="1" vertex="1">
          <mxGeometry x="904.81" y="608" width="106.38" height="74" as="geometry" />
        </mxCell>
        <mxCell id="Zr5eJQIICAYDmqEga5iW-12" value="1:N" style="text;html=1;align=center;verticalAlign=middle;whiteSpace=wrap;rounded=0;" parent="Zr5eJQIICAYDmqEga5iW-11" vertex="1">
          <mxGeometry x="73.19" y="-5" width="23" height="30" as="geometry" />
        </mxCell>
        <mxCell id="Zr5eJQIICAYDmqEga5iW-21" style="edgeStyle=orthogonalEdgeStyle;rounded=0;orthogonalLoop=1;jettySize=auto;html=1;exitX=0;exitY=0.5;exitDx=0;exitDy=0;entryX=1;entryY=0.5;entryDx=0;entryDy=0;" parent="1" source="Zr5eJQIICAYDmqEga5iW-15" target="Zr5eJQIICAYDmqEga5iW-17" edge="1">
          <mxGeometry relative="1" as="geometry" />
        </mxCell>
        <mxCell id="Zr5eJQIICAYDmqEga5iW-22" style="edgeStyle=orthogonalEdgeStyle;rounded=0;orthogonalLoop=1;jettySize=auto;html=1;exitX=0;exitY=0.5;exitDx=0;exitDy=0;entryX=1;entryY=0.25;entryDx=0;entryDy=0;" parent="1" source="Zr5eJQIICAYDmqEga5iW-15" target="Zr5eJQIICAYDmqEga5iW-16" edge="1">
          <mxGeometry relative="1" as="geometry" />
        </mxCell>
        <mxCell id="Zr5eJQIICAYDmqEga5iW-23" style="edgeStyle=orthogonalEdgeStyle;rounded=0;orthogonalLoop=1;jettySize=auto;html=1;exitX=0;exitY=0.5;exitDx=0;exitDy=0;entryX=1;entryY=0.5;entryDx=0;entryDy=0;" parent="1" source="Zr5eJQIICAYDmqEga5iW-15" target="Zr5eJQIICAYDmqEga5iW-20" edge="1">
          <mxGeometry relative="1" as="geometry" />
        </mxCell>
        <mxCell id="Zr5eJQIICAYDmqEga5iW-24" style="edgeStyle=orthogonalEdgeStyle;rounded=0;orthogonalLoop=1;jettySize=auto;html=1;exitX=0;exitY=0.5;exitDx=0;exitDy=0;entryX=1;entryY=0.75;entryDx=0;entryDy=0;" parent="1" source="Zr5eJQIICAYDmqEga5iW-15" target="Zr5eJQIICAYDmqEga5iW-18" edge="1">
          <mxGeometry relative="1" as="geometry" />
        </mxCell>
        <mxCell id="Zr5eJQIICAYDmqEga5iW-25" style="edgeStyle=orthogonalEdgeStyle;rounded=0;orthogonalLoop=1;jettySize=auto;html=1;exitX=0;exitY=0.5;exitDx=0;exitDy=0;entryX=1;entryY=0.5;entryDx=0;entryDy=0;" parent="1" source="Zr5eJQIICAYDmqEga5iW-15" target="Zr5eJQIICAYDmqEga5iW-19" edge="1">
          <mxGeometry relative="1" as="geometry" />
        </mxCell>
        <mxCell id="Zr5eJQIICAYDmqEga5iW-15" value="ENTREGA" style="rounded=1;whiteSpace=wrap;html=1;fillColor=#f8cecc;strokeColor=#b85450;fontStyle=1" parent="1" vertex="1">
          <mxGeometry x="623" y="154.5" width="120" height="60" as="geometry" />
        </mxCell>
        <mxCell id="Zr5eJQIICAYDmqEga5iW-16" value="ID_REPARTIDOR" style="rounded=1;whiteSpace=wrap;html=1;arcSize=50;fillColor=#dae8fc;strokeColor=#6c8ebf;" parent="1" vertex="1">
          <mxGeometry x="454" y="114" width="130" height="40" as="geometry" />
        </mxCell>
        <mxCell id="Zr5eJQIICAYDmqEga5iW-17" value="ID_ESTUDIANTE" style="rounded=1;whiteSpace=wrap;html=1;arcSize=50;fillColor=#dae8fc;strokeColor=#6c8ebf;" parent="1" vertex="1">
          <mxGeometry x="454" y="164" width="130" height="40" as="geometry" />
        </mxCell>
        <mxCell id="Zr5eJQIICAYDmqEga5iW-18" value="ID_SEDE" style="rounded=1;whiteSpace=wrap;html=1;arcSize=50;fillColor=#dae8fc;strokeColor=#6c8ebf;" parent="1" vertex="1">
          <mxGeometry x="454" y="214" width="130" height="40" as="geometry" />
        </mxCell>
        <mxCell id="Zr5eJQIICAYDmqEga5iW-19" value="FECHA" style="rounded=1;whiteSpace=wrap;html=1;arcSize=50;fillColor=#dae8fc;strokeColor=#6c8ebf;" parent="1" vertex="1">
          <mxGeometry x="454" y="264" width="130" height="40" as="geometry" />
        </mxCell>
        <mxCell id="Zr5eJQIICAYDmqEga5iW-20" value="ID_CUPON" style="rounded=1;whiteSpace=wrap;html=1;arcSize=50;fillColor=#dae8fc;strokeColor=#6c8ebf;" parent="1" vertex="1">
          <mxGeometry x="454" y="64" width="130" height="40" as="geometry" />
        </mxCell>
        <mxCell id="Zr5eJQIICAYDmqEga5iW-28" style="edgeStyle=orthogonalEdgeStyle;rounded=0;orthogonalLoop=1;jettySize=auto;html=1;" parent="1" source="Zr5eJQIICAYDmqEga5iW-26" target="Zr5eJQIICAYDmqEga5iW-15" edge="1">
          <mxGeometry relative="1" as="geometry">
            <mxPoint x="683" y="304" as="sourcePoint" />
          </mxGeometry>
        </mxCell>
        <mxCell id="Zr5eJQIICAYDmqEga5iW-26" value="REALIZA" style="rhombus;whiteSpace=wrap;html=1;container=1;fillColor=#e1d5e7;strokeColor=#9673a6;fontStyle=2" parent="1" vertex="1">
          <mxGeometry x="629.81" y="544" width="106.38" height="74" as="geometry" />
        </mxCell>
        <mxCell id="Zr5eJQIICAYDmqEga5iW-29" value="1:N" style="text;html=1;align=center;verticalAlign=middle;whiteSpace=wrap;rounded=0;" parent="Zr5eJQIICAYDmqEga5iW-26" vertex="1">
          <mxGeometry x="4.190000000000055" y="-3.5" width="31" height="30" as="geometry" />
        </mxCell>
        <mxCell id="Zr5eJQIICAYDmqEga5iW-36" style="edgeStyle=orthogonalEdgeStyle;rounded=0;orthogonalLoop=1;jettySize=auto;html=1;exitX=0.5;exitY=1;exitDx=0;exitDy=0;" parent="1" source="Zr5eJQIICAYDmqEga5iW-30" target="Zr5eJQIICAYDmqEga5iW-34" edge="1">
          <mxGeometry relative="1" as="geometry" />
        </mxCell>
        <mxCell id="Zr5eJQIICAYDmqEga5iW-37" style="edgeStyle=orthogonalEdgeStyle;rounded=0;orthogonalLoop=1;jettySize=auto;html=1;exitX=0;exitY=0.5;exitDx=0;exitDy=0;entryX=0.5;entryY=0;entryDx=0;entryDy=0;" parent="1" source="Zr5eJQIICAYDmqEga5iW-30" target="Zr5eJQIICAYDmqEga5iW-33" edge="1">
          <mxGeometry relative="1" as="geometry" />
        </mxCell>
        <mxCell id="Zr5eJQIICAYDmqEga5iW-38" style="edgeStyle=orthogonalEdgeStyle;rounded=0;orthogonalLoop=1;jettySize=auto;html=1;exitX=1;exitY=0.5;exitDx=0;exitDy=0;" parent="1" source="Zr5eJQIICAYDmqEga5iW-30" target="Zr5eJQIICAYDmqEga5iW-32" edge="1">
          <mxGeometry relative="1" as="geometry" />
        </mxCell>
        <mxCell id="Zr5eJQIICAYDmqEga5iW-30" value="SEDE" style="rounded=1;whiteSpace=wrap;html=1;container=0;fillColor=#f8cecc;strokeColor=#b85450;fontStyle=1" parent="1" vertex="1">
          <mxGeometry x="957" y="1000" width="120" height="60" as="geometry" />
        </mxCell>
        <mxCell id="Zr5eJQIICAYDmqEga5iW-32" value="DIRECCION" style="rounded=1;whiteSpace=wrap;html=1;arcSize=50;fillColor=#dae8fc;strokeColor=#6c8ebf;" parent="1" vertex="1">
          <mxGeometry x="1101" y="1094" width="130" height="40" as="geometry" />
        </mxCell>
        <mxCell id="Zr5eJQIICAYDmqEga5iW-33" value="ID_SEDE" style="rounded=1;whiteSpace=wrap;html=1;arcSize=50;fillColor=#dae8fc;strokeColor=#6c8ebf;" parent="1" vertex="1">
          <mxGeometry x="802.81" y="1094" width="130" height="40" as="geometry" />
        </mxCell>
        <mxCell id="Zr5eJQIICAYDmqEga5iW-34" value="NOMBRE" style="rounded=1;whiteSpace=wrap;html=1;arcSize=50;fillColor=#dae8fc;strokeColor=#6c8ebf;" parent="1" vertex="1">
          <mxGeometry x="952" y="1094" width="130" height="40" as="geometry" />
        </mxCell>
        <mxCell id="Zr5eJQIICAYDmqEga5iW-43" style="edgeStyle=orthogonalEdgeStyle;rounded=0;orthogonalLoop=1;jettySize=auto;html=1;" parent="1" source="Zr5eJQIICAYDmqEga5iW-39" target="Zr5eJQIICAYDmqEga5iW-30" edge="1">
          <mxGeometry relative="1" as="geometry" />
        </mxCell>
        <mxCell id="Zr5eJQIICAYDmqEga5iW-39" value="ASISTE" style="rhombus;whiteSpace=wrap;html=1;container=1;fillColor=#e1d5e7;strokeColor=#9673a6;fontStyle=2" parent="1" vertex="1">
          <mxGeometry x="963.81" y="722" width="106.38" height="74" as="geometry" />
        </mxCell>
        <mxCell id="Zr5eJQIICAYDmqEga5iW-40" value="1:1" style="text;html=1;align=center;verticalAlign=middle;whiteSpace=wrap;rounded=0;" parent="Zr5eJQIICAYDmqEga5iW-39" vertex="1">
          <mxGeometry x="73.19" y="-5" width="23" height="30" as="geometry" />
        </mxCell>
      </root>
    </mxGraphModel>
  </diagram>
</mxfile>
